<?xml version="1.0" ?><!DOCTYPE svg  PUBLIC '-//W3C//DTD SVG 1.1 Tiny//EN'  'http://www.w3.org/Graphics/SVG/1.1/DTD/svg11-tiny.dtd'><svg baseProfile="tiny" height="32px" version="1.1" viewBox="0 0 32 32" width="32px" xml:space="preserve" xmlns="http://www.w3.org/2000/svg" xmlns:xlink="http://www.w3.org/1999/xlink"><g id="Guides__x26__Forms"/><g id="Icons"><g><path d="M17,8.059V6h-2v2.059C10.501,8.557,7,12.368,7,17c0,2.125,0.741,4.074,1.972,5.614l-1.457,1.457l1.414,1.414l1.457-1.457    C11.926,25.259,13.875,26,16,26s4.074-0.741,5.614-1.972l1.457,1.457l1.414-1.414l-1.457-1.457C24.259,21.074,25,19.125,25,17    C25,12.368,21.499,8.557,17,8.059z M16,24c-3.866,0-7-3.134-7-7c0-3.866,3.134-7,7-7s7,3.134,7,7C23,20.866,19.866,24,16,24z" fill="#D5DDDF"/><polygon points="17,12 15,12 15,17.5 18.062,20.562 19.477,19.148 17,16.672   " fill="#D5DDDF"/><rect fill="#D5DDDF" height="5" transform="matrix(0.7071 0.7071 -0.7071 0.7071 8.23 -3.409)" width="2" x="7.23" y="5.73"/><rect fill="#D5DDDF" height="2" transform="matrix(0.7071 0.7071 -0.7071 0.7071 12.7643 -14.4391)" width="5" x="21.312" y="7.188"/></g></g></svg>