<?xml version="1.0" ?><svg enable-background="new 0 0 128 128" id="Слой_1" version="1.1" viewBox="0 0 128 128" xml:space="preserve" xmlns="http://www.w3.org/2000/svg" xmlns:xlink="http://www.w3.org/1999/xlink"><g><g><path d="M56.2709961,82.7397461c-0.3525391,0-0.7094727-0.0932617-1.0332031-0.2895508L27.5712891,65.7109375    C26.972168,65.3486328,26.6064453,64.699707,26.6064453,64s0.3657227-1.3486328,0.9648438-1.7109375L55.237793,45.5498047    c0.9443359-0.5722656,2.1743164-0.269043,2.7460938,0.6757812c0.5722656,0.9448242,0.2695312,2.1743164-0.6757812,2.7460938    L32.4697266,64l24.8383789,15.0283203c0.9453125,0.5717773,1.2480469,1.8012695,0.6757812,2.7460938    C57.6083984,82.3959961,56.9477539,82.7397461,56.2709961,82.7397461z" fill="#3399CC"/></g><g><path d="M81.3896484,65.9697266c-0.5200195,0-1.0400391-0.2099609-1.409668-0.5898438    c-0.3701172-0.3701172-0.590332-0.8901367-0.590332-1.4101562c0-0.5297852,0.2202148-1.0400391,0.590332-1.4199219    c0.75-0.7397461,2.0898438-0.7397461,2.8300781,0c0.3696289,0.3798828,0.5795898,0.8901367,0.5795898,1.4199219    c0,0.5302734-0.2099609,1.0400391-0.5795898,1.4101562C82.4399414,65.7597656,81.9199219,65.9697266,81.3896484,65.9697266z" fill="#3399CC"/></g><g><path d="M87.3896484,65.9697266c-0.5200195,0-1.0400391-0.2099609-1.409668-0.5898438    c-0.3701172-0.3701172-0.590332-0.8798828-0.590332-1.4101562c0-0.5297852,0.2202148-1.0400391,0.590332-1.409668    c0.7397461-0.75,2.0800781-0.75,2.8300781,0c0.3696289,0.3696289,0.5795898,0.8798828,0.5795898,1.409668    c0,0.5302734-0.2099609,1.0400391-0.5795898,1.4101562C88.4399414,65.7597656,87.9199219,65.9697266,87.3896484,65.9697266z" fill="#3399CC"/></g><g><path d="M93.3896484,65.9697266c-0.5200195,0-1.0400391-0.2197266-1.409668-0.5898438    c-0.3701172-0.3701172-0.590332-0.8798828-0.590332-1.4101562c0-0.5297852,0.2202148-1.0400391,0.590332-1.4199219    c0.7397461-0.7397461,2.0800781-0.7397461,2.8300781,0c0.3696289,0.3798828,0.5795898,0.8901367,0.5795898,1.4199219    c0,0.5302734-0.2099609,1.0400391-0.5795898,1.4101562C94.4296875,65.75,93.9199219,65.9697266,93.3896484,65.9697266z" fill="#3399CC"/></g><g><path d="M99.3896484,65.9697266c-0.5200195,0-1.0400391-0.2099609-1.409668-0.5898438    c-0.3701172-0.3701172-0.590332-0.8798828-0.590332-1.4101562c0-0.5297852,0.2202148-1.0400391,0.590332-1.4199219    c0.75-0.7397461,2.0800781-0.7397461,2.8300781,0c0.3696289,0.3798828,0.5795898,0.8901367,0.5795898,1.4199219    c0,0.5302734-0.2099609,1.0400391-0.5795898,1.4101562C100.4296875,65.7597656,99.9199219,65.9697266,99.3896484,65.9697266z" fill="#3399CC"/></g><g><path d="M75,66H32c-1.1044922,0-2-0.8955078-2-2s0.8955078-2,2-2h43c1.1044922,0,2,0.8955078,2,2    S76.1044922,66,75,66z" fill="#3399CC"/></g></g></svg>